<svg id="Layer_1" data-name="Layer 1" xmlns="http://www.w3.org/2000/svg" xmlns:xlink="http://www.w3.org/1999/xlink" viewBox="0 0 489.23 245.48"><defs><style>.cls-1{fill:url(#linear-gradient);}.cls-2{fill:url(#linear-gradient-2);}.cls-3{fill:url(#linear-gradient-3);}.cls-4{fill:url(#linear-gradient-4);}.cls-5{fill:url(#linear-gradient-5);}.cls-6{fill:url(#linear-gradient-6);}.cls-7{font-size:33.49px;fill:#07b3b8;}.cls-10,.cls-7{font-family:Macula-Solid, Macula;}.cls-8{letter-spacing:-0.01em;}.cls-9{letter-spacing:0.02em;}.cls-10{font-size:36.06px;}.cls-11{letter-spacing:-0.03em;}</style><linearGradient id="linear-gradient" x1="6.77" y1="225.09" x2="129.45" y2="225.09" gradientUnits="userSpaceOnUse"><stop offset="0" stop-color="#07beb8"/><stop offset="0.17" stop-color="#109094"/><stop offset="0.35" stop-color="#186974"/><stop offset="0.52" stop-color="#1f495c"/><stop offset="0.69" stop-color="#23334a"/><stop offset="0.86" stop-color="#262640"/><stop offset="1" stop-color="#27213c"/></linearGradient><linearGradient id="linear-gradient-2" x1="137.92" y1="220.44" x2="184.79" y2="220.44" xlink:href="#linear-gradient"/><linearGradient id="linear-gradient-3" x1="197.99" y1="217.31" x2="244.87" y2="217.31" xlink:href="#linear-gradient"/><linearGradient id="linear-gradient-4" x1="258.07" y1="261.47" x2="360.61" y2="261.47" xlink:href="#linear-gradient"/><linearGradient id="linear-gradient-5" x1="370.27" y1="217.31" x2="417.14" y2="217.31" xlink:href="#linear-gradient"/><linearGradient id="linear-gradient-6" x1="422.9" y1="221.71" x2="496" y2="221.71" xlink:href="#linear-gradient"/></defs><text x="-6.77" y="-89.52"/><path class="cls-1" d="M68.2,187.61h.16v41.8H83.43v8.8H68.36V268.5H68.2v16.92H6.77V226.19c0-33.5,27.92-61.43,61.43-61.43ZM77,221.45V164.93c28.09,4.06,50.08,27.76,52.45,56.52Z" transform="translate(-6.77 -89.52)"/><path class="cls-2" d="M184.79,155.46v83.08a46.87,46.87,0,0,1-46.87,46.88v-130Z" transform="translate(-6.77 -89.52)"/><path class="cls-3" d="M244.87,196.07v89.35A46.88,46.88,0,0,1,198,238.54V196.07ZM225.24,149.2a16.08,16.08,0,1,1-16.08,16.07A16.17,16.17,0,0,1,225.24,149.2Z" transform="translate(-6.77 -89.52)"/><path class="cls-4" d="M258.07,329.42v-89a46.87,46.87,0,0,1,46.87-46.88V329.42Zm55.67-42.14a46.88,46.88,0,0,0,0-93.75Z" transform="translate(-6.77 -89.52)"/><path class="cls-5" d="M417.14,196.07v89.35a46.87,46.87,0,0,1-46.87-46.88V196.07ZM397.51,149.2a16.08,16.08,0,1,1-16.08,16.07A16.18,16.18,0,0,1,397.51,149.2Z" transform="translate(-6.77 -89.52)"/><path class="cls-6" d="M422.9,204.87v-8.8h17.6V158L496,204.87h-8.63v33.67a46.87,46.87,0,0,1-46.87,46.88V204.87Z" transform="translate(-6.77 -89.52)"/><text class="cls-7" transform="translate(51.38 231.71) scale(1.29 1)">Fli<tspan class="cls-8" x="64.87" y="0">p</tspan><tspan class="cls-9" x="87.47" y="0">i</tspan><tspan x="106.06" y="0">t</tspan></text><text class="cls-10" transform="translate(321.95 234.96) scale(0.89 1)">a<tspan class="cls-11" x="31.66" y="0">r</tspan><tspan x="57.12" y="0">ound</tspan></text></svg>