<?xml version="1.0" encoding="utf-8"?>
<!-- Generator: Adobe Illustrator 26.0.1, SVG Export Plug-In . SVG Version: 6.00 Build 0)  -->
<svg version="1.1" id="Layer_1" xmlns="http://www.w3.org/2000/svg" xmlns:xlink="http://www.w3.org/1999/xlink" x="0px" y="0px"
	 viewBox="0 0 443.7 190.9" style="enable-background:new 0 0 443.7 190.9;" xml:space="preserve">
<style type="text/css">
	.st0{fill:url(#SVGID_1_);}
	.st1{fill:url(#SVGID_00000141434257631359064990000010830642545874750650_);}
	.st2{fill:url(#SVGID_00000109016686201217649420000007054510240760936085_);}
	.st3{fill:url(#SVGID_00000130614044263976756390000016936530879852911776_);}
	.st4{fill:url(#SVGID_00000012446522005698812060000014653688117503776416_);}
	.st5{fill:url(#SVGID_00000092425111574649114020000001222359468022599356_);}
	.st6{fill:#07B3B8;}
	.st7{font-family:'NewOrder-Bold';}
	.st8{font-size:28.8225px;}
	.st9{fill:#27213C;}
	.st10{font-size:32.6008px;}
</style>
<g>
	
		<linearGradient id="SVGID_1_" gradientUnits="userSpaceOnUse" x1="49.03" y1="468.4076" x2="140.1702" y2="468.4076" gradientTransform="matrix(1 0 0 1 -35.66 -396.15)">
		<stop  offset="0" style="stop-color:#07BEB8"/>
		<stop  offset="0.17" style="stop-color:#109094"/>
		<stop  offset="0.35" style="stop-color:#186974"/>
		<stop  offset="0.52" style="stop-color:#1F495C"/>
		<stop  offset="0.69" style="stop-color:#23334A"/>
		<stop  offset="0.86" style="stop-color:#262640"/>
		<stop  offset="1" style="stop-color:#27213C"/>
	</linearGradient>
	<path class="st0" d="M59,36.8h0.1v39.5h11.2v8.3H59.1v28.6H59v16H13.4v-56c0-31.7,20.8-58,45.6-58V36.8z M65.5,68.8V15.4
		c20.9,3.8,37.2,26.2,39,53.4H65.5z"/>
	
		<linearGradient id="SVGID_00000023276342075610824620000001959279428350260118_" gradientUnits="userSpaceOnUse" x1="78.7935" y1="476.1176" x2="123.0597" y2="476.1176" gradientTransform="matrix(-1 0 0 1 233.05 -396.15)">
		<stop  offset="0" style="stop-color:#07BEB8"/>
		<stop  offset="0.17" style="stop-color:#109094"/>
		<stop  offset="0.35" style="stop-color:#186974"/>
		<stop  offset="0.52" style="stop-color:#1F495C"/>
		<stop  offset="0.69" style="stop-color:#23334A"/>
		<stop  offset="0.86" style="stop-color:#262640"/>
		<stop  offset="1" style="stop-color:#27213C"/>
	</linearGradient>
	<path style="fill:url(#SVGID_00000023276342075610824620000001959279428350260118_);" d="M154.3,18.6v122.8l0,0
		c-24.5,0-44.3-19.8-44.3-44.3c0,0,0,0,0,0V18.6L154.3,18.6z"/>
	
		<linearGradient id="SVGID_00000063596611397455700950000007513645680095362985_" gradientUnits="userSpaceOnUse" x1="202.4169" y1="473.179" x2="246.702" y2="473.179" gradientTransform="matrix(1 0 0 1 -35.66 -396.15)">
		<stop  offset="0" style="stop-color:#07BEB8"/>
		<stop  offset="0.17" style="stop-color:#109094"/>
		<stop  offset="0.35" style="stop-color:#186974"/>
		<stop  offset="0.52" style="stop-color:#1F495C"/>
		<stop  offset="0.69" style="stop-color:#23334A"/>
		<stop  offset="0.86" style="stop-color:#262640"/>
		<stop  offset="1" style="stop-color:#27213C"/>
	</linearGradient>
	<path style="fill:url(#SVGID_00000063596611397455700950000007513645680095362985_);" d="M211,57v84.4c-24.5,0-44.3-19.8-44.3-44.3
		c0,0,0,0,0,0V57H211z M192.5,12.7c8.4,0,15.2,6.8,15.2,15.2s-6.8,15.2-15.2,15.2s-15.2-6.8-15.2-15.2l0,0
		C177.3,19.5,184.1,12.7,192.5,12.7z"/>
	
		<linearGradient id="SVGID_00000127012649597365518310000010756161981944336308_" gradientUnits="userSpaceOnUse" x1="259.174" y1="514.9036" x2="334.025" y2="514.9036" gradientTransform="matrix(1 0 0 1 -35.66 -396.15)">
		<stop  offset="0" style="stop-color:#07BEB8"/>
		<stop  offset="0.17" style="stop-color:#109094"/>
		<stop  offset="0.35" style="stop-color:#186974"/>
		<stop  offset="0.52" style="stop-color:#1F495C"/>
		<stop  offset="0.69" style="stop-color:#23334A"/>
		<stop  offset="0.86" style="stop-color:#262640"/>
		<stop  offset="1" style="stop-color:#27213C"/>
	</linearGradient>
	<path style="fill:url(#SVGID_00000127012649597365518310000010756161981944336308_);" d="M223.5,183V98.9
		c0-24.5,15.3-44.3,34.2-44.3l0,0V183H223.5z M264.1,143.1c18.9-0.4,34-20.5,33.7-44.9c-0.3-24-15.2-43.3-33.7-43.6V143.1z"/>
	
		<linearGradient id="SVGID_00000113349553034063941290000013972286333323435904_" gradientUnits="userSpaceOnUse" x1="341.2815" y1="468.4076" x2="385.5666" y2="468.4076" gradientTransform="matrix(1 0 0 1 -35.66 -396.15)">
		<stop  offset="0" style="stop-color:#07BEB8"/>
		<stop  offset="0.17" style="stop-color:#109094"/>
		<stop  offset="0.35" style="stop-color:#186974"/>
		<stop  offset="0.52" style="stop-color:#1F495C"/>
		<stop  offset="0.69" style="stop-color:#23334A"/>
		<stop  offset="0.86" style="stop-color:#262640"/>
		<stop  offset="1" style="stop-color:#27213C"/>
	</linearGradient>
	<path style="fill:url(#SVGID_00000113349553034063941290000013972286333323435904_);" d="M349.9,52.2v84.4
		c-24.5,0-44.3-19.8-44.3-44.3l0,0l0,0V52.2H349.9z M331.4,7.9c8.4,0,15.2,6.8,15.2,15.2c0,8.4-6.8,15.2-15.2,15.2
		s-15.2-6.8-15.2-15.2c0,0,0,0,0,0l0,0C316.2,14.7,323,8,331.4,7.9z"/>
	
		<linearGradient id="SVGID_00000112632598434822454830000012147322337705859768_" gradientUnits="userSpaceOnUse" x1="398.87" y1="477.3364" x2="467.9385" y2="477.3364" gradientTransform="matrix(-1 0 0 1 829.24 -396.15)">
		<stop  offset="0" style="stop-color:#07BEB8"/>
		<stop  offset="0.17" style="stop-color:#109094"/>
		<stop  offset="0.35" style="stop-color:#186974"/>
		<stop  offset="0.52" style="stop-color:#1F495C"/>
		<stop  offset="0.69" style="stop-color:#23334A"/>
		<stop  offset="0.86" style="stop-color:#262640"/>
		<stop  offset="1" style="stop-color:#27213C"/>
	</linearGradient>
	<path style="fill:url(#SVGID_00000112632598434822454830000012147322337705859768_);" d="M413.7,65.3v76.1l0,0
		c-24.5,0-44.3-19.8-44.3-44.3c0,0,0,0,0,0V65.3h-8.2L413.7,21v36h16.6v8.3H413.7z"/>
</g>
<text transform="matrix(1.29 0 0 1 45.4902 170.9482)" class="st6 st7 st8">REVERSE</text>
<g>
	<text transform="matrix(0.89 0 0 1 283.2568 171.8906)" class="st9 st7 st10">A STRING </text>
</g>
</svg>
